<svg width="42" height="40" viewBox="0 0 42 40" fill="none" xmlns="http://www.w3.org/2000/svg">
<path d="M26.25 27.8125C26.25 28.5508 25.5938 29.125 24.9375 29.125H17.0625C16.3242 29.125 15.75 28.5508 15.75 27.8125V23.875H0V35.6875C0 37.8203 1.80469 39.625 3.9375 39.625H38.0625C40.1133 39.625 42 37.8203 42 35.6875V23.875H26.25V27.8125ZM38.0625 8.125H31.5V4.1875C31.5 2.13672 29.6133 0.25 27.5625 0.25H14.4375C12.3047 0.25 10.5 2.13672 10.5 4.1875V8.125H3.9375C1.80469 8.125 0 10.0117 0 12.0625V21.25H42V12.0625C42 10.0117 40.1133 8.125 38.0625 8.125ZM27.5625 8.125H14.4375V4.1875H27.5625V8.125Z" fill="#B4743A"/>
</svg>
