<svg width="53" height="31" viewBox="0 0 53 31" fill="none" xmlns="http://www.w3.org/2000/svg">
<path d="M49.5625 0.25H3.4375C1.99609 0.25 0.875 1.45117 0.875 2.8125V28.4375C0.875 29.8789 1.99609 31 3.4375 31H49.5625C50.9238 31 52.125 29.8789 52.125 28.4375V2.8125C52.125 1.45117 50.9238 0.25 49.5625 0.25ZM4.71875 27.1562V22.0312C7.52148 22.0312 9.84375 24.3535 9.84375 27.1562H4.71875ZM4.71875 9.21875V4.09375H9.84375C9.84375 6.97656 7.52148 9.21875 4.71875 9.21875ZM26.5 23.3125C22.8965 23.3125 20.0938 19.9492 20.0938 15.625C20.0938 11.3809 22.8965 7.9375 26.5 7.9375C30.0234 7.9375 32.9062 11.3809 32.9062 15.625C32.9062 19.9492 30.0234 23.3125 26.5 23.3125ZM48.2812 27.1562H43.1562C43.1562 24.3535 45.3984 22.0312 48.2812 22.0312V27.1562ZM48.2812 9.21875C45.3984 9.21875 43.1562 6.97656 43.1562 4.09375H48.2812V9.21875Z" fill="#4FAD38"/>
</svg>
