<svg width="15" height="15" viewBox="0 0 15 15" fill="none" xmlns="http://www.w3.org/2000/svg">
<path d="M7.5 14.75C3.61719 14.75 0.5 11.6328 0.5 7.75C0.5 3.89453 3.61719 0.75 7.5 0.75C11.3555 0.75 14.5 3.89453 14.5 7.75C14.5 11.6328 11.3555 14.75 7.5 14.75ZM6.84375 7.75C6.84375 7.96875 6.95312 8.1875 7.11719 8.29688L9.74219 10.0469C10.043 10.2656 10.4531 10.1836 10.6445 9.88281C10.8633 9.58203 10.7812 9.17188 10.4805 8.95312L8.15625 7.42188V4.03125C8.15625 3.67578 7.85547 3.375 7.47266 3.375C7.11719 3.375 6.81641 3.67578 6.81641 4.03125L6.84375 7.75Z" fill="#3D5D8E"/>
</svg>
