<svg width="32" height="34" viewBox="0 0 32 34" fill="none" xmlns="http://www.w3.org/2000/svg">
<path d="M30.0935 4.16583H27.528C26.4751 4.16583 25.6216 5.01391 25.6216 6.06007V9.58955C25.6216 10.6357 26.4751 11.4838 27.528 11.4838H30.0935C31.1464 11.4838 32 10.6357 32 9.58955V6.06007C32 5.01391 31.1464 4.16583 30.0935 4.16583Z" fill="#F6921E"/>
<path d="M30.0935 13.341H27.528C26.4751 13.341 25.6216 14.1891 25.6216 15.2352V18.7647C25.6216 19.8109 26.4751 20.659 27.528 20.659H30.0935C31.1464 20.659 32 19.8109 32 18.7647V15.2352C32 14.1891 31.1464 13.341 30.0935 13.341Z" fill="#29B473"/>
<path d="M30.0935 22.5199H27.528C26.4751 22.5199 25.6216 23.368 25.6216 24.4141V27.9436C25.6216 28.9898 26.4751 29.8379 27.528 29.8379H30.0935C31.1464 29.8379 32 28.9898 32 27.9436V24.4141C32 23.368 31.1464 22.5199 30.0935 22.5199Z" fill="#7F3F97"/>
<path d="M24.4338 0H4.37515C1.95882 0 0 1.94627 0 4.34712V29.6529C0 32.0537 1.95882 34 4.37515 34H24.4338C26.8501 34 28.8089 32.0537 28.8089 29.6529V4.34712C28.8089 1.94627 26.8501 0 24.4338 0Z" fill="#1B75FF"/>
<path d="M22.7843 24.773C22.7843 25.4316 22.2481 25.9606 21.5891 25.9606H7.22369C6.56463 25.9606 6.02844 25.4242 6.02844 24.773C6.02844 21.4877 8.78758 18.8276 14.4064 18.8276C20.0252 18.8276 22.7843 21.4877 22.7843 24.773ZM9.61792 12.4272C9.61792 9.80045 11.7627 7.66943 14.4064 7.66943C17.0501 7.66943 19.1948 9.80045 19.1948 12.4272C19.1948 15.054 17.0501 17.185 14.4064 17.185C11.7627 17.185 9.61792 15.054 9.61792 12.4272Z" fill="white"/>
</svg>
