<svg width="42" height="33" viewBox="0 0 42 33" fill="none" xmlns="http://www.w3.org/2000/svg">
<path d="M30 12C30 5.8125 23.3906 0.75 15.375 0.75C7.28906 0.75 0.75 5.8125 0.75 12C0.75 14.4609 1.73438 16.6406 3.42188 18.4688C2.4375 20.6484 0.890625 22.3359 0.890625 22.3359C0.75 22.4766 0.679688 22.7578 0.75 22.9688C0.890625 23.1797 1.03125 23.25 1.3125 23.25C3.84375 23.25 5.95312 22.4062 7.5 21.4922C9.75 22.6172 12.4922 23.25 15.375 23.25C23.3906 23.25 30 18.2578 30 12ZM38.5781 27.4688C40.1953 25.6406 41.25 23.4609 41.25 21C41.25 16.3594 37.4531 12.2812 32.1094 10.5938C32.1797 11.0859 32.25 11.5781 32.25 12C32.25 19.4531 24.6562 25.5 15.375 25.5C14.6016 25.5 13.8281 25.5 13.125 25.4297C15.3047 29.4375 20.5078 32.25 26.625 32.25C29.5078 32.25 32.1797 31.6172 34.4297 30.4922C35.9766 31.4062 38.0859 32.25 40.6875 32.25C40.8984 32.25 41.1094 32.1797 41.1797 31.9688C41.25 31.7578 41.25 31.4766 41.0391 31.3359C41.0391 31.3359 39.4922 29.6484 38.5781 27.4688Z" fill="#F19937"/>
</svg>
