<svg width="23" height="24" viewBox="0 0 23 24" fill="none" xmlns="http://www.w3.org/2000/svg">
<path d="M11.75 13.5H8.75C6.64062 13.5 5 15.1875 5 17.25C5 17.6719 5.32812 18 5.75 18H14.75C15.125 18 15.5 17.6719 15.5 17.25C15.5 15.1875 13.8125 13.5 11.75 13.5ZM10.25 12C11.8906 12 13.25 10.6875 13.25 9C13.25 7.35938 11.8906 6 10.25 6C8.5625 6 7.25 7.35938 7.25 9C7.25 10.6875 8.5625 12 10.25 12ZM22.25 15H21.5V19.5H22.25C22.625 19.5 23 19.1719 23 18.75V15.75C23 15.375 22.625 15 22.25 15ZM22.25 3H21.5V7.5H22.25C22.625 7.5 23 7.17188 23 6.75V3.75C23 3.375 22.625 3 22.25 3ZM22.25 9H21.5V13.5H22.25C22.625 13.5 23 13.1719 23 12.75V9.75C23 9.375 22.625 9 22.25 9ZM17 0H3.5C1.8125 0 0.5 1.35938 0.5 3V21C0.5 22.6875 1.8125 24 3.5 24H17C18.6406 24 20 22.6875 20 21V3C20 1.35938 18.6406 0 17 0ZM17.75 21C17.75 21.4219 17.375 21.75 17 21.75H3.5C3.07812 21.75 2.75 21.4219 2.75 21V3C2.75 2.625 3.07812 2.25 3.5 2.25H17C17.375 2.25 17.75 2.625 17.75 3V21Z" fill="#999999"/>
</svg>
