<svg width="46" height="35" viewBox="0 0 46 35" fill="none" xmlns="http://www.w3.org/2000/svg">
<path d="M31.22 0H14C10.287 0 6.72602 1.47499 4.10051 4.1005C1.475 6.72601 2.11168e-06 10.287 2.11168e-06 14V14V15.47C-0.00105088 17.3832 0.391715 19.2761 1.15385 21.0309C1.91599 22.7857 3.03118 24.3648 4.43 25.67V25.67C6.43 27.67 6.43 30.9 4.38 34.77C12.51 34.77 14.61 29.68 21.22 29.48H31.22C34.933 29.48 38.494 28.005 41.1195 25.3795C43.745 22.754 45.22 19.193 45.22 15.48V14C45.22 10.287 43.745 6.72601 41.1195 4.1005C38.494 1.47499 34.933 0 31.22 0V0Z" fill="#CF820E"/>
<path d="M26.5998 7.9502H10.9798C10.179 7.9502 9.52979 8.59938 9.52979 9.4002V9.4102C9.52979 10.211 10.179 10.8602 10.9798 10.8602H26.5998C27.4006 10.8602 28.0498 10.211 28.0498 9.4102V9.4002C28.0498 8.59938 27.4006 7.9502 26.5998 7.9502Z" fill="white"/>
<path d="M34.2498 13.2803H10.9798C10.179 13.2803 9.52979 13.9295 9.52979 14.7303V14.7403C9.52979 15.5411 10.179 16.1903 10.9798 16.1903H34.2498C35.0506 16.1903 35.6998 15.5411 35.6998 14.7403V14.7303C35.6998 13.9295 35.0506 13.2803 34.2498 13.2803Z" fill="white"/>
<path d="M20.5498 18.6201H10.9798C10.179 18.6201 9.52979 19.2693 9.52979 20.0701V20.0801C9.52979 20.8809 10.179 21.5301 10.9798 21.5301H20.5498C21.3506 21.5301 21.9998 20.8809 21.9998 20.0801V20.0701C21.9998 19.2693 21.3506 18.6201 20.5498 18.6201Z" fill="white"/>
</svg>
