<svg width="47" height="43" viewBox="0 0 47 43" fill="none" xmlns="http://www.w3.org/2000/svg">
<path d="M32.4945 0H14.5386C13.112 0 11.9556 1.14307 11.9556 2.55312V13.6845C11.9556 15.0946 13.112 16.2376 14.5386 16.2376H32.4945C33.9211 16.2376 35.0776 15.0946 35.0776 13.6845V2.55312C35.0776 1.14307 33.9211 0 32.4945 0Z" fill="#FAAF40"/>
<path d="M46.2993 3.6806H0V6.16418H46.2993V3.6806Z" fill="white"/>
<path d="M36.4246 6.15436H10.6391C9.20976 6.15436 8.05103 7.29965 8.05103 8.71245V19.8339C8.05103 21.2467 9.20976 22.392 10.6391 22.392H36.4246C37.854 22.392 39.0127 21.2467 39.0127 19.8339V8.71245C39.0127 7.29965 37.854 6.15436 36.4246 6.15436Z" fill="#00A69C"/>
<path d="M46.2993 10.143H0V12.6266H46.2993V10.143Z" fill="white"/>
<path d="M39.1934 12.6563H7.65379C5.74426 12.6563 4.19629 14.1863 4.19629 16.0737V39.4094C4.19629 41.2968 5.74426 42.8269 7.65379 42.8269H39.1934C41.1029 42.8269 42.6509 41.2968 42.6509 39.4094V16.0737C42.6509 14.1863 41.1029 12.6563 39.1934 12.6563Z" fill="#26A9E0"/>
<path d="M22.3681 34.333C17.6693 34.333 13.845 30.553 13.845 25.9087C13.845 21.2644 17.6693 17.4844 22.3681 17.4844C27.0669 17.4844 30.8912 21.2644 30.8912 25.9087C30.8912 30.553 27.0669 34.333 22.3681 34.333ZM22.3681 20.9614C19.6091 20.9614 17.3628 23.1817 17.3628 25.9087C17.3628 28.6357 19.6091 30.856 22.3681 30.856C25.1271 30.856 27.3734 28.6357 27.3734 25.9087C27.3734 23.1817 25.1271 20.9614 22.3681 20.9614Z" fill="white"/>
<path d="M32.0274 37.4274C31.5751 37.4274 31.1279 37.2586 30.7811 36.9158L26.1577 32.3411C25.4692 31.6606 25.4692 30.5628 26.1577 29.8823C26.8462 29.2018 27.9568 29.2018 28.6453 29.8823L33.2687 34.4571C33.9572 35.1376 33.9572 36.2353 33.2687 36.9158C32.927 37.2536 32.4747 37.4274 32.0274 37.4274Z" fill="white"/>
</svg>
