<svg width="30" height="22" viewBox="0 0 30 22" fill="none" xmlns="http://www.w3.org/2000/svg">
<path d="M9.75 21.5C8.48438 21.5 7.40625 20.9375 6.75 20C6.04688 20.9375 4.96875 21.5 3.75 21.5C1.64062 21.5 0 19.8594 0 17.75V3.875C0 2.04688 1.5 0.5 3.375 0.5H19.125C20.9531 0.5 22.5 2.04688 22.5 3.875V5.75H24.75C25.5469 5.75 26.2969 6.125 26.8125 6.73438L29.5312 10.1094C29.8125 10.4375 30 10.8594 30 11.2812V16.25C30 17.0938 29.2969 17.75 28.5 17.75C28.5 19.8594 26.8125 21.5 24.75 21.5C22.6406 21.5 21 19.8594 21 17.75H13.5C13.5 19.8594 11.8125 21.5 9.75 21.5ZM2.25 3.875V14.3281C2.67188 14.1406 3.1875 14 3.75 14C4.96875 14 6.04688 14.6094 6.75 15.5C7.40625 14.6094 8.48438 14 9.75 14C10.9688 14 12.0469 14.6094 12.75 15.5H20.25V3.875C20.25 3.26562 19.7344 2.75 19.125 2.75H3.375C2.71875 2.75 2.25 3.26562 2.25 3.875ZM24.75 8H22.5V11H27.375L25.0781 8.14062C24.9844 8.09375 24.8906 8 24.75 8ZM24.75 19.25C25.5469 19.25 26.25 18.5938 26.25 17.75C26.25 16.9531 25.5469 16.25 24.75 16.25C23.9062 16.25 23.25 16.9531 23.25 17.75C23.25 18.5938 23.9062 19.25 24.75 19.25ZM9.75 16.25C8.90625 16.25 8.25 16.9531 8.25 17.75C8.25 18.5938 8.90625 19.25 9.75 19.25C10.5469 19.25 11.25 18.5938 11.25 17.75C11.25 16.9531 10.5469 16.25 9.75 16.25ZM3.75 19.25C4.54688 19.25 5.25 18.5938 5.25 17.75C5.25 16.9531 4.54688 16.25 3.75 16.25C2.90625 16.25 2.25 16.9531 2.25 17.75C2.25 18.5938 2.90625 19.25 3.75 19.25Z" fill="#999999"/>
</svg>
