<svg width="28" height="25" viewBox="0 0 28 25" fill="none" xmlns="http://www.w3.org/2000/svg">
<path d="M14.5625 14.7188C18.8281 8.53125 19.625 7.92188 19.625 5.625C19.625 2.53125 17.0938 0 14 0C10.8594 0 8.375 2.53125 8.375 5.625C8.375 7.92188 9.125 8.53125 13.3906 14.7188C13.6719 15.1406 14.2812 15.1406 14.5625 14.7188ZM12.125 5.25C12.125 4.21875 12.9219 3.375 14 3.375C15.0312 3.375 15.875 4.21875 15.875 5.25C15.875 6.32812 15.0312 7.125 14 7.125C12.9219 7.125 12.125 6.32812 12.125 5.25ZM26.4219 4.59375L21.0312 6.5625C20.8906 7.5 20.6094 8.29688 20 9.32812L25.25 7.40625V19.4531L19.25 21.5625V10.6406C18.8281 11.25 17.2344 13.5 17 13.875V21.2812L11 19.1719V13.875C10.7188 13.4531 9.125 11.25 8.75 10.6406V18.8906L2.75 21.0938V9.09375L7.10938 7.54688C6.92188 6.9375 6.875 6.375 6.875 5.625C6.875 5.53125 6.875 5.39062 6.875 5.25L1.4375 7.125C0.875 7.35938 0.5 7.92188 0.5 8.53125V23.25C0.5 23.7656 0.96875 24.1875 1.53125 23.9531L9.5 21L17.5625 23.8125C18.1719 24.0469 18.8281 24.0469 19.4375 23.8125L26.5156 21.375C27.125 21.1875 27.5 20.625 27.5 20.0156V5.25C27.5 4.78125 26.9844 4.35938 26.4219 4.59375Z" fill="black"/>
</svg>
