<svg width="22" height="19" viewBox="0 0 22 19" fill="none" xmlns="http://www.w3.org/2000/svg">
<path d="M20.375 8.0625H1.57617C0.746094 8.0625 0.0625 8.79492 0.0625 9.625C0.0625 10.5039 0.746094 11.1875 1.57617 11.1875H20.3262C21.2051 11.1875 21.9375 10.5039 21.9375 9.625C21.9375 8.79492 21.2051 8.0625 20.375 8.0625ZM20.375 15.875H1.57617C0.746094 15.875 0.0625 16.6074 0.0625 17.4375C0.0625 18.2188 0.746094 19 1.57617 19H20.3262C21.2051 19 21.9375 18.3164 21.9375 17.4375C21.9375 16.6074 21.2051 15.875 20.375 15.875ZM20.375 0.25H1.57617C0.746094 0.25 0.0625 0.982422 0.0625 1.8125C0.0625 2.59375 0.746094 3.375 1.57617 3.375H20.3262C21.2051 3.375 21.9375 2.69141 21.9375 1.8125C21.9375 0.982422 21.2051 0.25 20.375 0.25Z" fill="black"/>
</svg>
