<svg width="34" height="30" viewBox="0 0 34 30" fill="none" xmlns="http://www.w3.org/2000/svg">
<path d="M31.4375 0.1875H8.75C7.58984 0.1875 6.6875 1.1543 6.6875 2.25V23.9062C6.6875 24.4863 6.17188 24.9375 5.65625 24.9375C5.07617 24.9375 4.625 24.4863 4.625 23.9062V4.3125H2.5625C1.40234 4.3125 0.5 5.2793 0.5 6.375V24.9375C0.5 27.2578 2.30469 29.0625 4.625 29.0625H29.375C31.6309 29.0625 33.5 27.2578 33.5 24.9375V2.25C33.5 1.1543 32.5332 0.1875 31.4375 0.1875ZM18.0312 24.9375H11.8438C11.2637 24.9375 10.8125 24.4863 10.8125 23.9062C10.8125 23.3906 11.2637 22.875 11.8438 22.875H18.0312C18.5469 22.875 19.0625 23.3906 19.0625 23.9062C19.0625 24.4863 18.5469 24.9375 18.0312 24.9375ZM18.0312 18.75H11.8438C11.2637 18.75 10.8125 18.2988 10.8125 17.7188C10.8125 17.2031 11.2637 16.6875 11.8438 16.6875H18.0312C18.5469 16.6875 19.0625 17.2031 19.0625 17.7188C19.0625 18.2988 18.5469 18.75 18.0312 18.75ZM28.3438 24.9375H22.1562C21.5762 24.9375 21.125 24.4863 21.125 23.9062C21.125 23.3906 21.5762 22.875 22.1562 22.875H28.3438C28.8594 22.875 29.375 23.3906 29.375 23.9062C29.375 24.4863 28.8594 24.9375 28.3438 24.9375ZM28.3438 18.75H22.1562C21.5762 18.75 21.125 18.2988 21.125 17.7188C21.125 17.2031 21.5762 16.6875 22.1562 16.6875H28.3438C28.8594 16.6875 29.375 17.2031 29.375 17.7188C29.375 18.2988 28.8594 18.75 28.3438 18.75ZM29.375 11.5312C29.375 12.1113 28.8594 12.5625 28.3438 12.5625H11.8438C11.2637 12.5625 10.8125 12.1113 10.8125 11.5312V5.34375C10.8125 4.82812 11.2637 4.3125 11.8438 4.3125H28.3438C28.8594 4.3125 29.375 4.82812 29.375 5.34375V11.5312Z" fill="#736D6D"/>
</svg>
