<svg width="41" height="41" viewBox="0 0 41 41" fill="none" xmlns="http://www.w3.org/2000/svg">
<path d="M23.4923 36.7001V29.7015C23.4923 29.2625 23.3903 26.6857 25.3728 24.0424C27.6879 20.9512 31.5375 21.1552 31.5375 21.1552H36.487L35.7464 14.6002H4.7409L3.94702 21.1552H8.89654C8.89654 21.1552 12.7417 20.9556 15.0613 24.0424C17.0437 26.6857 16.9417 29.2669 16.9417 29.7015V36.7001" fill="#FF9500"/>
<path d="M20.237 22.8582C21.6405 22.8582 22.7782 21.7205 22.7782 20.317C22.7782 18.9134 21.6405 17.7757 20.237 17.7757C18.8335 17.7757 17.6957 18.9134 17.6957 20.317C17.6957 21.7205 18.8335 22.8582 20.237 22.8582Z" fill="#FFD59B"/>
<path d="M20.2416 40.4876C9.08299 40.4876 0 31.4046 0 20.2416C0 9.07855 9.08299 0 20.2416 0C31.4002 0 40.4832 9.08299 40.4832 20.2416C40.4832 31.4002 31.4002 40.4832 20.2416 40.4832V40.4876ZM20.2416 4.43505C11.5267 4.43505 4.43505 11.5267 4.43505 20.2416C4.43505 28.9565 11.5267 36.0481 20.2416 36.0481C28.9565 36.0481 36.0481 28.9565 36.0481 20.2416C36.0481 11.5267 28.9609 4.43505 20.2416 4.43505Z" fill="#BBBDBF"/>
</svg>
