<svg width="41" height="42" viewBox="0 0 41 42" fill="none" xmlns="http://www.w3.org/2000/svg">
<path d="M20.5 0.125C31.791 0.125 41 9.33398 41 20.625C41 31.9961 31.791 41.125 20.5 41.125C16.0957 41.125 12.0918 39.7637 8.72852 37.5215C7.60742 36.6406 7.28711 35.0391 8.08789 33.918C8.88867 32.7168 10.4902 32.4766 11.6914 33.2773C14.1738 35.0391 17.2168 36 20.5 36C28.9883 36 35.875 29.1133 35.875 20.625C35.875 12.1367 28.9883 5.25 20.5 5.25C16.1758 5.25 12.4121 7.01172 9.60938 9.81445L12.0918 12.2168C13.293 13.498 12.4121 15.5 10.7305 15.5H1.92188C0.800781 15.5 0 14.6992 0 13.5781V4.76953C0 3.08789 2.00195 2.20703 3.20312 3.4082L5.92578 6.13086C9.68945 2.44727 14.8145 0.125 20.4199 0.125H20.5ZM20.5 10.375C21.541 10.375 22.4219 11.2559 22.4219 12.2969V19.9043L27.5469 25.0293C28.3477 25.8301 28.3477 27.0312 27.5469 27.752C26.8262 28.5527 25.625 28.5527 24.9043 27.752L19.1387 21.9863C18.7383 21.666 18.5781 21.1855 18.5781 20.625V12.2969C18.5781 11.2559 19.3789 10.375 20.5 10.375Z" fill="#009CF3"/>
</svg>
