<svg width="28" height="28" viewBox="0 0 28 28" fill="none" xmlns="http://www.w3.org/2000/svg">
<path d="M14.2809 21.0125C11.7405 21.0125 9.91798 19.6581 9.1565 17.1958C8.97861 16.6184 9.30006 16.0067 9.87741 15.8288C10.4548 15.651 11.0664 15.9724 11.2443 16.5497C11.7281 18.107 12.6924 18.8311 14.284 18.8311C16.3001 18.8311 16.8306 17.6139 16.8306 16.9711C16.8306 15.9381 15.7633 15.1672 13.9033 14.852C9.97415 14.1873 9.54972 12.0027 9.54972 11.0946C9.54972 9.16589 10.951 7.22161 14.0843 7.22161C17.2176 7.22161 18.7031 9.71515 18.9871 11.0353C19.115 11.6251 18.7405 12.2056 18.1507 12.3335C17.564 12.4584 16.9835 12.0901 16.8524 11.5065C16.7994 11.2849 16.2907 9.40931 14.0812 9.40931C12.037 9.40931 11.7312 10.4673 11.7312 11.0977C11.7312 11.8342 12.6768 12.4334 14.2653 12.7018C15.3794 12.889 19.012 13.7566 19.012 16.9773C19.012 18.9871 17.3861 21.0219 14.2809 21.0219V21.0125Z" fill="black"/>
<path d="M14.0594 22.7008C13.457 22.7008 12.9671 22.2109 12.9671 21.6085V19.9202C12.9671 19.3179 13.457 18.8279 14.0594 18.8279C14.6617 18.8279 15.1516 19.3179 15.1516 19.9202V21.6085C15.1516 22.2109 14.6617 22.7008 14.0594 22.7008Z" fill="black"/>
<path d="M14.0594 9.17214C13.457 9.17214 12.9671 8.68217 12.9671 8.07985V6.21048C12.9671 5.60817 13.457 5.1182 14.0594 5.1182C14.6617 5.1182 15.1516 5.60817 15.1516 6.21048V8.07985C15.1516 8.68217 14.6617 9.17214 14.0594 9.17214Z" fill="black"/>
<path d="M14 28C6.27909 28 0 21.7178 0 14C0 6.28221 6.27909 0 14 0C21.7209 0 28 6.27909 28 14C28 21.7209 21.7209 28 14 28ZM14 2.18457C7.48373 2.18457 2.18457 7.48373 2.18457 14C2.18457 20.5163 7.48373 25.8154 14 25.8154C20.5163 25.8154 25.8154 20.5163 25.8154 14C25.8154 7.48373 20.5132 2.18457 14 2.18457Z" fill="black"/>
</svg>
