<svg width="35" height="35" viewBox="0 0 35 35" fill="none" xmlns="http://www.w3.org/2000/svg">
<path d="M17.8511 26.2656C14.6757 26.2656 12.3975 24.5726 11.4457 21.4947C11.2233 20.773 11.6251 20.0084 12.3468 19.786C13.0685 19.5636 13.8331 19.9655 14.0554 20.6871C14.6601 22.6338 15.8655 23.5388 17.855 23.5388C20.3751 23.5388 21.0383 22.0174 21.0383 21.2138C21.0383 19.9225 19.7041 18.959 17.3791 18.565C12.4677 17.7341 11.9372 15.0033 11.9372 13.8682C11.9372 11.4573 13.6887 9.02698 17.6054 9.02698C21.522 9.02698 23.3789 12.1439 23.7339 13.794C23.8938 14.5313 23.4257 15.2569 22.6884 15.4169C21.955 15.5729 21.2294 15.1126 21.0656 14.3831C20.9993 14.1061 20.3634 11.7616 17.6015 11.7616C15.0463 11.7616 14.664 13.084 14.664 13.8721C14.664 14.7927 15.846 15.5417 17.8316 15.8772C19.2243 16.1112 23.7651 17.1957 23.7651 21.2216C23.7651 23.7338 21.7327 26.2773 17.8511 26.2773V26.2656Z" fill="#37B34A"/>
<path d="M17.5742 28.3761C16.8213 28.3761 16.2088 27.7636 16.2088 27.0107V24.9003C16.2088 24.1474 16.8213 23.5349 17.5742 23.5349C18.3271 23.5349 18.9395 24.1474 18.9395 24.9003V27.0107C18.9395 27.7636 18.3271 28.3761 17.5742 28.3761Z" fill="#37B34A"/>
<path d="M17.5742 11.4651C16.8213 11.4651 16.2088 10.8527 16.2088 10.0998V7.76306C16.2088 7.01017 16.8213 6.39771 17.5742 6.39771C18.3271 6.39771 18.9395 7.01017 18.9395 7.76306V10.0998C18.9395 10.8527 18.3271 11.4651 17.5742 11.4651Z" fill="#37B34A"/>
<path d="M17.5 35C7.84886 35 0 27.1472 0 17.5C0 7.85276 7.84886 0 17.5 0C27.1511 0 35 7.84886 35 17.5C35 27.1511 27.1511 35 17.5 35ZM17.5 2.73072C9.35466 2.73072 2.73072 9.35466 2.73072 17.5C2.73072 25.6453 9.35466 32.2693 17.5 32.2693C25.6453 32.2693 32.2693 25.6453 32.2693 17.5C32.2693 9.35466 25.6414 2.73072 17.5 2.73072Z" fill="#BBBDBF"/>
</svg>
