<svg width="28" height="28" viewBox="0 0 28 28" fill="none" xmlns="http://www.w3.org/2000/svg">
<path d="M14.2808 21.0125C11.7405 21.0125 9.9179 19.658 9.15643 17.1957C8.97854 16.6183 9.29998 16.0067 9.87733 15.8288C10.4547 15.6509 11.0664 15.9723 11.2443 16.5497C11.728 18.107 12.6923 18.831 14.2839 18.831C16.3 18.831 16.8305 17.6139 16.8305 16.971C16.8305 15.938 15.7632 15.1672 13.9032 14.852C9.97408 14.1872 9.54965 12.0027 9.54965 11.0945C9.54965 9.16583 10.9509 7.22156 14.0842 7.22156C17.2175 7.22156 18.703 9.71509 18.987 11.0352C19.115 11.625 18.7405 12.2055 18.1506 12.3335C17.5639 12.4583 16.9834 12.09 16.8524 11.5064C16.7993 11.2849 16.2906 9.40925 14.0811 9.40925C12.0369 9.40925 11.7311 10.4672 11.7311 11.0976C11.7311 11.8341 12.6767 12.4333 14.2652 12.7017C15.3793 12.889 19.012 13.7566 19.012 16.9772C19.012 18.9871 17.386 21.0218 14.2808 21.0218V21.0125Z" fill="#999999"/>
<path d="M14.0593 22.7008C13.457 22.7008 12.967 22.2108 12.967 21.6085V19.9202C12.967 19.3178 13.457 18.8279 14.0593 18.8279C14.6616 18.8279 15.1516 19.3178 15.1516 19.9202V21.6085C15.1516 22.2108 14.6616 22.7008 14.0593 22.7008Z" fill="#999999"/>
<path d="M14.0593 9.17211C13.457 9.17211 12.967 8.68214 12.967 8.07982V6.21045C12.967 5.60813 13.457 5.11816 14.0593 5.11816C14.6616 5.11816 15.1516 5.60813 15.1516 6.21045V8.07982C15.1516 8.68214 14.6616 9.17211 14.0593 9.17211Z" fill="#999999"/>
<path d="M14 28C6.27909 28 0 21.7178 0 14C0 6.28221 6.27909 0 14 0C21.7209 0 28 6.27909 28 14C28 21.7209 21.7209 28 14 28ZM14 2.18457C7.48373 2.18457 2.18457 7.48373 2.18457 14C2.18457 20.5163 7.48373 25.8154 14 25.8154C20.5163 25.8154 25.8154 20.5163 25.8154 14C25.8154 7.48373 20.5132 2.18457 14 2.18457Z" fill="#999999"/>
</svg>
