<svg width="36" height="32" viewBox="0 0 36 32" fill="none" xmlns="http://www.w3.org/2000/svg">
<path d="M18.8047 14.4453L5.67969 1.32031C4.69531 0.253906 2.97266 0.253906 1.98828 1.32031C0.921875 2.30469 0.921875 4.02734 1.98828 5.01172L13.2266 16.25L1.98828 27.5703C0.921875 28.5547 0.921875 30.2773 1.98828 31.2617C2.48047 31.7539 3.13672 32 3.875 32C4.53125 32 5.1875 31.7539 5.67969 31.2617L18.8047 18.1367C19.8711 17.1523 19.8711 15.4297 18.8047 14.4453ZM34.5547 14.4453L21.4297 1.32031C20.4453 0.253906 18.7227 0.253906 17.7383 1.32031C16.6719 2.30469 16.6719 4.02734 17.7383 5.01172L28.9766 16.25L17.7383 27.5703C16.6719 28.5547 16.6719 30.2773 17.7383 31.2617C18.2305 31.7539 18.8867 32 19.625 32C20.2812 32 20.9375 31.7539 21.4297 31.2617L34.5547 18.1367C35.6211 17.1523 35.6211 15.4297 34.5547 14.4453Z" fill="#F2AE00"/>
</svg>
