<svg width="39" height="44" viewBox="0 0 39 44" fill="none" xmlns="http://www.w3.org/2000/svg">
<path d="M5.55273 31.8403C8.61941 31.8403 11.1055 29.3429 11.1055 26.2622C11.1055 23.1816 8.61941 20.6842 5.55273 20.6842C2.48604 20.6842 0 23.1816 0 26.2622C0 29.3429 2.48604 31.8403 5.55273 31.8403Z" fill="#BBBDBF"/>
<path d="M14.0215 17.516C18.8364 17.516 22.7397 13.5949 22.7397 8.758C22.7397 3.92109 18.8364 0 14.0215 0C9.20651 0 5.30322 3.92109 5.30322 8.758C5.30322 13.5949 9.20651 17.516 14.0215 17.516Z" fill="#FAAF40"/>
<path d="M26.3175 43.0781C19.4521 43.0781 13.8645 37.4651 13.8645 30.5684C13.8645 23.6716 19.4521 18.0586 26.3175 18.0586C33.1829 18.0586 38.7704 23.6716 38.7704 30.5684C38.7704 37.4651 33.1829 43.0781 26.3175 43.0781ZM26.3175 23.3099C22.333 23.3099 19.092 26.5657 19.092 30.5684C19.092 34.571 22.333 37.8268 26.3175 37.8268C30.302 37.8268 33.543 34.571 33.543 30.5684C33.543 26.5657 30.302 23.3099 26.3175 23.3099Z" fill="#F05A28"/>
</svg>
