<svg width="41" height="41" viewBox="0 0 41 41" fill="none" xmlns="http://www.w3.org/2000/svg">
<g clip-path="url(#clip0_34_3)">
<path d="M28.4567 27.2549C28.4567 27.8793 27.952 28.384 27.3276 28.384H13.7836C13.1635 28.384 12.6545 27.875 12.6545 27.2549C12.6545 24.1373 15.259 21.6098 20.5577 21.6098C25.8565 21.6098 28.4609 24.1373 28.4609 27.2549H28.4567ZM16.0416 15.5413C16.0416 13.048 18.0645 11.0251 20.5577 11.0251C23.051 11.0251 25.0739 13.048 25.0739 15.5413C25.0739 18.0345 23.051 20.0574 20.5577 20.0574C18.0645 20.0574 16.0416 18.0345 16.0416 15.5413Z" fill="#30B0C7"/>
<path d="M20.5022 41C15.5413 41 10.7558 39.2038 7.02654 35.9493C6.40215 35.4062 6.338 34.461 6.88541 33.8367C7.42854 33.2123 8.37368 33.1481 8.99806 33.6955C12.1841 36.4753 16.2726 38.0106 20.5065 38.0106C30.1588 38.0106 38.015 30.1588 38.015 20.5021C38.015 17.4358 37.211 14.4165 35.6885 11.7735C35.2736 11.0594 35.5217 10.1399 36.2359 9.72932C36.9501 9.31877 37.8653 9.56253 38.2801 10.2767C40.0635 13.373 41.0086 16.9098 41.0086 20.5021C41.0086 31.8053 31.8139 41.0043 20.5065 41.0043L20.5022 41Z" fill="#6BD3DD"/>
<path d="M7.08639 40.6664C7.04362 40.6664 7.00086 40.6664 6.96237 40.6621C6.13698 40.5937 5.52542 39.871 5.59385 39.0456L6.09849 32.977L11.8334 31.9592C12.646 31.8181 13.4243 32.3569 13.5698 33.1695C13.7152 33.9821 13.172 34.7604 12.3595 34.9058L8.8954 35.5216L8.58321 39.2936C8.51906 40.0762 7.86474 40.6664 7.09494 40.6664H7.08639Z" fill="#6BD3DD"/>
<path d="M4.39637 32.0918C3.90028 32.0918 3.41275 31.8437 3.12621 31.3904C1.08199 28.1316 0 24.3682 0 20.5021C0 9.19474 9.19474 0 20.5021 0C25.9762 0 31.1253 2.13404 34.9999 6.00438C35.5858 6.59028 35.5858 7.53541 34.9999 8.12131C34.414 8.70721 33.4689 8.70721 32.883 8.12131C29.5771 4.81548 25.1808 2.99364 20.5021 2.99364C10.8455 2.99364 2.99364 10.8455 2.99364 20.5021C2.99364 23.8037 3.91739 27.0197 5.66225 29.7995C6.10274 30.5009 5.88891 31.4246 5.19182 31.8651C4.94378 32.0191 4.67007 32.0961 4.39637 32.0961V32.0918Z" fill="#6BD3DD"/>
<path d="M29.3333 9.37435C28.6191 9.37435 27.9905 8.86543 27.8622 8.13841C27.7168 7.32585 28.2599 6.5475 29.0725 6.4021L32.5365 5.78626L32.8487 2.01428C32.9171 1.18889 33.6399 0.577333 34.4653 0.645759C35.2907 0.714185 35.9022 1.43693 35.8338 2.26232L35.3292 8.33085L29.5942 9.34869C29.5044 9.3658 29.4189 9.37007 29.3291 9.37007L29.3333 9.37435Z" fill="#6BD3DD"/>
</g>
<defs>
<clipPath id="clip0_34_3">
<rect width="41" height="41" fill="white"/>
</clipPath>
</defs>
</svg>
