<svg width="131" height="130" viewBox="0 0 131 130" fill="none" xmlns="http://www.w3.org/2000/svg">
<path d="M51.709 74.6553H53.2402L56.1182 82.332L58.9893 74.6553H60.5205L56.7197 84.6084H55.5029L51.709 74.6553ZM51.0117 74.6553H52.4678L52.7207 81.2998V84.6084H51.0117V74.6553ZM59.7617 74.6553H61.2246V84.6084H59.5088V81.2998L59.7617 74.6553ZM64.8613 77.2119V84.6084H63.207V77.2119H64.8613ZM63.0977 75.2705C63.0977 75.0199 63.1797 74.8125 63.3438 74.6484C63.5124 74.4798 63.7448 74.3955 64.041 74.3955C64.3327 74.3955 64.5628 74.4798 64.7314 74.6484C64.9001 74.8125 64.9844 75.0199 64.9844 75.2705C64.9844 75.5166 64.9001 75.7217 64.7314 75.8857C64.5628 76.0498 64.3327 76.1318 64.041 76.1318C63.7448 76.1318 63.5124 76.0498 63.3438 75.8857C63.1797 75.7217 63.0977 75.5166 63.0977 75.2705ZM68.4297 74.1084V84.6084H66.7754V74.1084H68.4297ZM73.4951 84.7451C72.9482 84.7451 72.4538 84.6562 72.0117 84.4785C71.5742 84.2962 71.2005 84.0433 70.8906 83.7197C70.5853 83.3962 70.3506 83.0156 70.1865 82.5781C70.0225 82.1406 69.9404 81.6689 69.9404 81.1631V80.8896C69.9404 80.3109 70.0247 79.7868 70.1934 79.3174C70.362 78.848 70.5967 78.4469 70.8975 78.1143C71.1982 77.777 71.5537 77.5195 71.9639 77.3418C72.374 77.1641 72.8184 77.0752 73.2969 77.0752C73.8255 77.0752 74.2881 77.1641 74.6846 77.3418C75.0811 77.5195 75.4092 77.7702 75.6689 78.0938C75.9333 78.4128 76.1292 78.7933 76.2568 79.2354C76.389 79.6774 76.4551 80.165 76.4551 80.6982V81.4023H70.7402V80.2197H74.8281V80.0898C74.819 79.7936 74.7598 79.5156 74.6504 79.2559C74.5456 78.9961 74.3838 78.7865 74.165 78.627C73.9463 78.4674 73.6546 78.3877 73.29 78.3877C73.0166 78.3877 72.7728 78.4469 72.5586 78.5654C72.349 78.6794 72.1735 78.8457 72.0322 79.0645C71.891 79.2832 71.7816 79.5475 71.7041 79.8574C71.6312 80.1628 71.5947 80.5068 71.5947 80.8896V81.1631C71.5947 81.4867 71.638 81.7874 71.7246 82.0654C71.8158 82.3389 71.9479 82.5781 72.1211 82.7832C72.2943 82.9883 72.5039 83.1501 72.75 83.2686C72.9961 83.3825 73.2764 83.4395 73.5908 83.4395C73.9873 83.4395 74.3405 83.3597 74.6504 83.2002C74.9603 83.0407 75.2292 82.8151 75.457 82.5234L76.3252 83.3643C76.1657 83.5967 75.9583 83.82 75.7031 84.0342C75.4479 84.2438 75.1357 84.4147 74.7666 84.5469C74.402 84.679 73.9782 84.7451 73.4951 84.7451ZM81.8896 82.6055C81.8896 82.4414 81.8486 82.2933 81.7666 82.1611C81.6846 82.0244 81.5273 81.9014 81.2949 81.792C81.0671 81.6826 80.7298 81.5824 80.2832 81.4912C79.8913 81.4046 79.5312 81.3021 79.2031 81.1836C78.8796 81.0605 78.6016 80.9124 78.3691 80.7393C78.1367 80.5661 77.9567 80.361 77.8291 80.124C77.7015 79.887 77.6377 79.6136 77.6377 79.3037C77.6377 79.0029 77.7038 78.7181 77.8359 78.4492C77.9681 78.1803 78.1572 77.9434 78.4033 77.7383C78.6494 77.5332 78.9479 77.3714 79.2988 77.2529C79.6543 77.1344 80.0508 77.0752 80.4883 77.0752C81.1081 77.0752 81.639 77.18 82.0811 77.3896C82.5277 77.5947 82.8695 77.875 83.1064 78.2305C83.3434 78.5814 83.4619 78.9779 83.4619 79.4199H81.8145C81.8145 79.224 81.7643 79.0417 81.6641 78.873C81.5684 78.6999 81.4225 78.5609 81.2266 78.4561C81.0306 78.3467 80.7845 78.292 80.4883 78.292C80.2057 78.292 79.971 78.3376 79.7842 78.4287C79.6019 78.5153 79.4652 78.6292 79.374 78.7705C79.2874 78.9118 79.2441 79.0667 79.2441 79.2354C79.2441 79.3584 79.2669 79.4701 79.3125 79.5703C79.3626 79.666 79.4447 79.7549 79.5586 79.8369C79.6725 79.9144 79.8275 79.9873 80.0234 80.0557C80.224 80.124 80.4746 80.1901 80.7754 80.2539C81.3405 80.3724 81.8258 80.5251 82.2314 80.7119C82.6416 80.8942 82.9561 81.1312 83.1748 81.4229C83.3936 81.71 83.5029 82.0745 83.5029 82.5166C83.5029 82.8447 83.4323 83.1455 83.291 83.4189C83.1543 83.6878 82.9538 83.9225 82.6895 84.123C82.4251 84.319 82.1084 84.4717 81.7393 84.5811C81.3747 84.6904 80.9645 84.7451 80.5088 84.7451C79.8389 84.7451 79.2715 84.6266 78.8066 84.3896C78.3418 84.1481 77.9886 83.8405 77.7471 83.4668C77.5101 83.0885 77.3916 82.6966 77.3916 82.291H78.9844C79.0026 82.5964 79.0869 82.8402 79.2373 83.0225C79.3923 83.2002 79.5837 83.3301 79.8115 83.4121C80.0439 83.4896 80.2832 83.5283 80.5293 83.5283C80.8255 83.5283 81.0739 83.4896 81.2744 83.4121C81.4749 83.3301 81.6276 83.2207 81.7324 83.084C81.8372 82.9427 81.8896 82.7832 81.8896 82.6055Z" fill="#787878"/>
<path d="M127 65.2157C127 98.3976 99.5406 125.431 65.5 125.431C31.4594 125.431 4 98.3976 4 65.2157C4 32.0338 31.4594 5 65.5 5C99.5406 5 127 32.0338 127 65.2157Z" stroke="#D0D0D0" stroke-width="8"/>
<path d="M65.5 4.92188C31.5345 4.92188 4 31.9165 4 65.216C4 98.5155 31.5345 125.51 65.5 125.51C99.4655 125.51 127 98.5155 127 65.216C127 46.5367 118.336 29.8413 104.733 18.7818" stroke="#2A6DED" stroke-width="8" stroke-linecap="round"/>
<path d="M34.0234 56.8809V69H31.8237V59.4458L28.9102 60.4087V58.6323L33.7744 56.8809H34.0234ZM40.2739 67.0244L40.2573 68.5435C40.2573 69.1356 40.1107 69.736 39.8174 70.3447C39.5241 70.9535 39.145 71.457 38.6802 71.8555L37.5181 71.2163C37.6675 70.9673 37.8058 70.7155 37.9331 70.4609C38.0659 70.2064 38.1711 69.9297 38.2485 69.6309C38.3315 69.3376 38.373 69.0083 38.373 68.6431V67.0244H40.2739ZM48.1929 56.8145H48.4917V58.5825H48.3506C47.681 58.5825 47.0916 58.6849 46.5825 58.8896C46.0789 59.0944 45.6584 59.3822 45.3208 59.7529C44.9888 60.1182 44.737 60.5526 44.5654 61.0562C44.3939 61.5542 44.3081 62.0993 44.3081 62.6914V64.6504C44.3081 65.1097 44.3551 65.5137 44.4492 65.8623C44.5488 66.2054 44.6844 66.4959 44.856 66.7339C45.033 66.9663 45.2378 67.1406 45.4702 67.2568C45.7082 67.373 45.9683 67.4312 46.2505 67.4312C46.5327 67.4312 46.7873 67.373 47.0142 67.2568C47.241 67.1406 47.4347 66.9774 47.5952 66.7671C47.7612 66.5513 47.8857 66.2995 47.9688 66.0117C48.0573 65.724 48.1016 65.4085 48.1016 65.0654C48.1016 64.7279 48.0601 64.4152 47.9771 64.1274C47.894 63.8397 47.7723 63.5879 47.6118 63.3721C47.4513 63.1507 47.2521 62.9819 47.0142 62.8657C46.7817 62.744 46.5161 62.6831 46.2173 62.6831C45.8299 62.6831 45.484 62.7744 45.1797 62.957C44.8753 63.1341 44.6346 63.3665 44.4575 63.6543C44.2804 63.9421 44.1836 64.2464 44.167 64.5674L43.4282 64.2021C43.4559 63.7318 43.5555 63.3001 43.7271 62.9072C43.9041 62.5143 44.1393 62.1712 44.4326 61.8779C44.7314 61.5846 45.0828 61.3577 45.4868 61.1973C45.8963 61.0368 46.3501 60.9565 46.8481 60.9565C47.4237 60.9565 47.9272 61.0672 48.3589 61.2886C48.7905 61.5044 49.1475 61.8005 49.4297 62.1768C49.7174 62.5531 49.9333 62.9875 50.0771 63.48C50.221 63.967 50.293 64.4816 50.293 65.0239C50.293 65.605 50.1989 66.1473 50.0107 66.6509C49.8281 67.1545 49.5625 67.5944 49.2139 67.9707C48.8652 68.347 48.4447 68.6403 47.9521 68.8506C47.4596 69.0609 46.9062 69.166 46.292 69.166C45.6445 69.166 45.0635 69.0443 44.5488 68.8008C44.0397 68.5573 43.6025 68.2197 43.2373 67.7881C42.8721 67.3564 42.5926 66.8529 42.3989 66.2773C42.2052 65.7018 42.1084 65.0793 42.1084 64.4097V63.5298C42.1084 62.5835 42.2384 61.7036 42.4985 60.8901C42.7586 60.0767 43.1432 59.3656 43.6523 58.7568C44.167 58.1426 44.8034 57.6667 45.5615 57.3291C46.3197 56.986 47.1968 56.8145 48.1929 56.8145ZM57.4482 56.8809V69H55.2485V59.4458L52.335 60.4087V58.6323L57.1992 56.8809H57.4482ZM67.6167 56.8145H67.9155V58.5825H67.7744C67.1048 58.5825 66.5155 58.6849 66.0063 58.8896C65.5028 59.0944 65.0822 59.3822 64.7446 59.7529C64.4126 60.1182 64.1608 60.5526 63.9893 61.0562C63.8177 61.5542 63.7319 62.0993 63.7319 62.6914V64.6504C63.7319 65.1097 63.779 65.5137 63.873 65.8623C63.9727 66.2054 64.1082 66.4959 64.2798 66.7339C64.4569 66.9663 64.6616 67.1406 64.894 67.2568C65.132 67.373 65.3921 67.4312 65.6743 67.4312C65.9565 67.4312 66.2111 67.373 66.438 67.2568C66.6649 67.1406 66.8586 66.9774 67.019 66.7671C67.1851 66.5513 67.3096 66.2995 67.3926 66.0117C67.4811 65.724 67.5254 65.4085 67.5254 65.0654C67.5254 64.7279 67.4839 64.4152 67.4009 64.1274C67.3179 63.8397 67.1961 63.5879 67.0356 63.3721C66.8752 63.1507 66.6759 62.9819 66.438 62.8657C66.2056 62.744 65.9399 62.6831 65.6411 62.6831C65.2537 62.6831 64.9079 62.7744 64.6035 62.957C64.2992 63.1341 64.0584 63.3665 63.8813 63.6543C63.7043 63.9421 63.6074 64.2464 63.5908 64.5674L62.8521 64.2021C62.8797 63.7318 62.9793 63.3001 63.1509 62.9072C63.328 62.5143 63.5632 62.1712 63.8564 61.8779C64.1553 61.5846 64.5067 61.3577 64.9106 61.1973C65.3201 61.0368 65.7739 60.9565 66.272 60.9565C66.8475 60.9565 67.3511 61.0672 67.7827 61.2886C68.2144 61.5044 68.5713 61.8005 68.8535 62.1768C69.1413 62.5531 69.3571 62.9875 69.501 63.48C69.6449 63.967 69.7168 64.4816 69.7168 65.0239C69.7168 65.605 69.6227 66.1473 69.4346 66.6509C69.252 67.1545 68.9863 67.5944 68.6377 67.9707C68.2891 68.347 67.8685 68.6403 67.376 68.8506C66.8835 69.0609 66.3301 69.166 65.7158 69.166C65.0684 69.166 64.4873 69.0443 63.9727 68.8008C63.4635 68.5573 63.0264 68.2197 62.6611 67.7881C62.2959 67.3564 62.0164 66.8529 61.8228 66.2773C61.6291 65.7018 61.5322 65.0793 61.5322 64.4097V63.5298C61.5322 62.5835 61.6623 61.7036 61.9224 60.8901C62.1825 60.0767 62.5671 59.3656 63.0762 58.7568C63.5908 58.1426 64.2272 57.6667 64.9854 57.3291C65.7435 56.986 66.6206 56.8145 67.6167 56.8145ZM73.4106 67.0244L73.394 68.5435C73.394 69.1356 73.2474 69.736 72.9541 70.3447C72.6608 70.9535 72.2817 71.457 71.8169 71.8555L70.6548 71.2163C70.8042 70.9673 70.9425 70.7155 71.0698 70.4609C71.2026 70.2064 71.3078 69.9297 71.3853 69.6309C71.4683 69.3376 71.5098 69.0083 71.5098 68.6431V67.0244H73.4106ZM80.873 56.8809V69H78.6733V59.4458L75.7598 60.4087V58.6323L80.624 56.8809H80.873ZM90.585 56.8809V69H88.3853V59.4458L85.4717 60.4087V58.6323L90.3359 56.8809H90.585ZM97.0513 61.9858H98.2881C98.7253 61.9858 99.085 61.9111 99.3672 61.7617C99.6549 61.6068 99.868 61.3965 100.006 61.1309C100.15 60.8597 100.222 60.547 100.222 60.1929C100.222 59.8442 100.159 59.5426 100.031 59.2881C99.904 59.028 99.7103 58.8288 99.4502 58.6904C99.1956 58.5465 98.8691 58.4746 98.4707 58.4746C98.1497 58.4746 97.8537 58.5382 97.5825 58.6655C97.3169 58.7928 97.1038 58.9754 96.9434 59.2134C96.7884 59.4458 96.7109 59.7253 96.7109 60.0518H94.5112C94.5112 59.3988 94.6828 58.826 95.0259 58.3335C95.3745 57.8354 95.8449 57.4453 96.437 57.1631C97.0291 56.8809 97.6904 56.7397 98.4209 56.7397C99.2178 56.7397 99.915 56.8726 100.513 57.1382C101.116 57.3983 101.583 57.7829 101.916 58.292C102.253 58.8011 102.422 59.432 102.422 60.1846C102.422 60.5443 102.336 60.904 102.165 61.2637C101.999 61.6178 101.752 61.9388 101.426 62.2266C101.105 62.5088 100.709 62.7384 100.239 62.9155C99.7739 63.0871 99.2399 63.1729 98.6367 63.1729H97.0513V61.9858ZM97.0513 63.6792V62.5088H98.6367C99.3174 62.5088 99.9067 62.589 100.405 62.7495C100.908 62.9045 101.323 63.1258 101.65 63.4136C101.976 63.6958 102.217 64.0251 102.372 64.4014C102.533 64.7777 102.613 65.1816 102.613 65.6133C102.613 66.1777 102.508 66.6813 102.297 67.124C102.087 67.5612 101.791 67.932 101.409 68.2363C101.033 68.5407 100.59 68.7731 100.081 68.9336C99.5719 69.0885 99.0213 69.166 98.4292 69.166C97.9146 69.166 97.4137 69.0968 96.9268 68.9585C96.4453 68.8146 96.0109 68.6016 95.6235 68.3193C95.2362 68.0316 94.929 67.6719 94.7021 67.2402C94.4753 66.8031 94.3618 66.2967 94.3618 65.7212H96.5615C96.5615 66.0532 96.6418 66.3493 96.8022 66.6094C96.9683 66.8695 97.1951 67.0742 97.4829 67.2236C97.7762 67.3675 98.1055 67.4395 98.4707 67.4395C98.8747 67.4395 99.2205 67.3675 99.5083 67.2236C99.8016 67.0742 100.026 66.8639 100.181 66.5928C100.336 66.3161 100.413 65.9868 100.413 65.605C100.413 65.1512 100.327 64.7832 100.156 64.501C99.9842 64.2188 99.738 64.0112 99.417 63.8784C99.1016 63.7456 98.7253 63.6792 98.2881 63.6792H97.0513Z" fill="#313131"/>
</svg>
