<svg width="32" height="34" viewBox="0 0 32 34" fill="none" xmlns="http://www.w3.org/2000/svg">
<path d="M29.5352 5.53906L17.1602 0.382812C16.7734 0.253906 16.3867 0.189453 16 0.189453C15.5488 0.189453 15.1621 0.253906 14.7754 0.382812L2.40039 5.53906C1.24023 6.05469 0.53125 7.15039 0.53125 8.375C0.53125 21.2012 7.87891 30.0312 14.7754 32.9316C15.5488 33.2539 16.3867 33.2539 17.1602 32.9316C22.7031 30.6113 31.4688 22.6836 31.4688 8.375C31.4688 7.15039 30.6953 6.05469 29.5352 5.53906ZM26.5059 12.8867L14.6465 24.7461C14.2598 25.1973 13.5508 25.1973 13.1641 24.7461L6.46094 18.043C6.07422 17.6562 6.07422 17.0117 6.46094 16.625L7.94336 15.1426C8.33008 14.7559 8.97461 14.7559 9.36133 15.1426L13.9375 19.6543L23.6055 9.98633C23.9922 9.59961 24.6367 9.59961 25.0234 9.98633L26.5059 11.4688C26.8926 11.8555 26.8926 12.5 26.5059 12.8867Z" fill="#4883F4"/>
</svg>
