<svg width="20" height="14" viewBox="0 0 20 14" fill="none" xmlns="http://www.w3.org/2000/svg">
<path d="M13 0C14.0938 0 15 0.90625 15 2V3.5H16.5C17.0312 3.5 17.5312 3.75 17.875 4.15625L19.6875 6.40625C19.875 6.625 20 6.90625 20 7.1875V10C20 10.5625 19.5312 11 19 11H18.9375C18.9688 11.1875 19 11.3438 19 11.5C19 12.9062 17.875 14 16.5 14C15.0938 14 14 12.9062 14 11.5C14 11.3438 14 11.1875 14.0312 11H8.9375C8.96875 11.1875 9 11.3438 9 11.5C9 12.9062 7.875 14 6.5 14C5.65625 14 4.9375 13.625 4.5 13C4.03125 13.625 3.3125 14 2.5 14C1.09375 14 0 12.9062 0 11.5V2C0 0.90625 0.875 0 2 0H13ZM16.7188 5.09375C16.6562 5.0625 16.5938 5 16.5 5H15V7H18.25L16.7188 5.09375ZM16.5 12.5C17.0312 12.5 17.5 12.0625 17.5 11.5C17.5 10.9688 17.0312 10.5 16.5 10.5C15.9375 10.5 15.5 10.9688 15.5 11.5C15.5 12.0625 15.9375 12.5 16.5 12.5ZM6.5 10.5C5.9375 10.5 5.5 10.9688 5.5 11.5C5.5 12.0625 5.9375 12.5 6.5 12.5C7.03125 12.5 7.5 12.0625 7.5 11.5C7.5 10.9688 7.03125 10.5 6.5 10.5ZM2.5 12.5C3.03125 12.5 3.5 12.0625 3.5 11.5C3.5 10.9688 3.03125 10.5 2.5 10.5C1.9375 10.5 1.5 10.9688 1.5 11.5C1.5 12.0625 1.9375 12.5 2.5 12.5Z" fill="#3D5D8E"/>
</svg>
