<svg width="36" height="31" viewBox="0 0 36 31" fill="none" xmlns="http://www.w3.org/2000/svg">
<path d="M22.625 14.8516L19.4023 21.2969C19.0156 22.0703 17.9199 22.0059 17.5332 21.2324L13.8594 13.1113L11.9258 17.752L5.60938 17.6875L16.9531 29.4824C17.791 30.3203 19.1445 30.3203 19.918 29.4824L31.3262 17.6875L24.1074 17.752L22.625 14.8516ZM31.8418 3.18555C28.2969 0.15625 22.9473 0.736328 19.7246 4.02344L18.5 5.37695L17.2109 4.02344C13.9883 0.736328 8.63867 0.15625 5.09375 3.18555C1.41992 6.4082 0.96875 11.8867 3.80469 15.625H10.5723L12.8926 10.082C13.2148 9.24414 14.375 9.24414 14.7617 10.082L18.5 18.3965L21.6582 12.0801C22.0449 11.3711 23.1406 11.3711 23.5273 12.0801L25.332 15.6895H33.1309C35.9668 11.8867 35.5156 6.4082 31.8418 3.18555Z" fill="#D94848"/>
</svg>
