<svg width="44" height="44" viewBox="0 0 26 23" fill="none" xmlns="http://www.w3.org/2000/svg">
<circle cx="11.5" cy="11.5" r="11.5" fill="#FFE5A0"/>
<path d="M6.5835 14.7593L8.14111 8.17969H9.01123L9.20996 9.27539L7.55029 16H6.61572L6.5835 14.7593ZM5.7832 8.17969L7.07227 14.7593L6.96484 16H5.92285L4.18799 8.17969H5.7832ZM10.5796 14.7324L11.8525 8.17969H13.4478L11.7183 16H10.6763L10.5796 14.7324ZM9.5 8.17969L11.0684 14.7861L11.0254 16H10.0908L8.42041 9.27002L8.63525 8.17969H9.5ZM17.3687 13.2124H15.376V11.9556H17.3687C17.6766 11.9556 17.9272 11.9054 18.1206 11.8052C18.314 11.7013 18.4554 11.5581 18.5449 11.3755C18.6344 11.1929 18.6792 10.987 18.6792 10.7578C18.6792 10.5251 18.6344 10.3084 18.5449 10.1079C18.4554 9.90739 18.314 9.74626 18.1206 9.62451C17.9272 9.50277 17.6766 9.44189 17.3687 9.44189H15.9346V16H14.3232V8.17969H17.3687C17.981 8.17969 18.5055 8.29069 18.9424 8.5127C19.3828 8.73112 19.7194 9.03369 19.9521 9.42041C20.1849 9.80713 20.3013 10.2493 20.3013 10.7471C20.3013 11.252 20.1849 11.6888 19.9521 12.0576C19.7194 12.4264 19.3828 12.7111 18.9424 12.9116C18.5055 13.1121 17.981 13.2124 17.3687 13.2124Z" fill="#9A5C00"/>
</svg>
