<svg width="35" height="35" viewBox="0 0 35 35" fill="none" xmlns="http://www.w3.org/2000/svg">
<path d="M35 17.5C35 27.165 27.165 35 17.5 35C7.83502 35 0 27.165 0 17.5C0 7.83502 7.83502 0 17.5 0C27.165 0 35 7.83502 35 17.5Z" fill="#FFE5A0"/>
<path d="M12.4453 17.9297H9.53906L9.52344 16.4141H12.0156C12.4427 16.4141 12.7995 16.3542 13.0859 16.2344C13.3724 16.1146 13.5885 15.9401 13.7344 15.7109C13.8854 15.4818 13.9609 15.2031 13.9609 14.875C13.9609 14.5104 13.8906 14.2135 13.75 13.9844C13.6146 13.7552 13.401 13.5885 13.1094 13.4844C12.8177 13.375 12.4479 13.3203 12 13.3203H10.2344V23H8.08594V11.625H12C12.6458 11.625 13.2214 11.6875 13.7266 11.8125C14.237 11.9323 14.6693 12.1198 15.0234 12.375C15.3776 12.6302 15.6458 12.9505 15.8281 13.3359C16.0156 13.7214 16.1094 14.1797 16.1094 14.7109C16.1094 15.1797 16 15.612 15.7812 16.0078C15.5677 16.3984 15.237 16.7161 14.7891 16.9609C14.3464 17.2057 13.7839 17.3464 13.1016 17.3828L12.4453 17.9297ZM12.3516 23H8.90625L9.80469 21.3125H12.3516C12.7786 21.3125 13.1302 21.2422 13.4062 21.1016C13.6875 20.9609 13.8958 20.7682 14.0312 20.5234C14.1719 20.2734 14.2422 19.987 14.2422 19.6641C14.2422 19.3099 14.1797 19.0026 14.0547 18.7422C13.9349 18.4818 13.7422 18.2812 13.4766 18.1406C13.2161 18 12.8724 17.9297 12.4453 17.9297H10.2109L10.2266 16.4141H13.0703L13.5625 17C14.2188 17.0052 14.7526 17.1354 15.1641 17.3906C15.5807 17.6458 15.888 17.974 16.0859 18.375C16.2839 18.776 16.3828 19.2083 16.3828 19.6719C16.3828 20.401 16.224 21.013 15.9062 21.5078C15.5938 22.0026 15.1354 22.375 14.5312 22.625C13.9323 22.875 13.2057 23 12.3516 23ZM24.8984 19.2578H27.0469C26.9896 20.0182 26.7786 20.6927 26.4141 21.2812C26.0495 21.8646 25.5417 22.3229 24.8906 22.6562C24.2396 22.9896 23.4505 23.1562 22.5234 23.1562C21.8099 23.1562 21.1667 23.0312 20.5938 22.7812C20.026 22.526 19.5391 22.1641 19.1328 21.6953C18.7318 21.2214 18.4245 20.6536 18.2109 19.9922C17.9974 19.3255 17.8906 18.5781 17.8906 17.75V16.8828C17.8906 16.0547 18 15.3073 18.2188 14.6406C18.4375 13.974 18.75 13.4062 19.1562 12.9375C19.5677 12.4635 20.0599 12.099 20.6328 11.8438C21.2109 11.5885 21.8568 11.4609 22.5703 11.4609C23.4974 11.4609 24.2812 11.6328 24.9219 11.9766C25.5625 12.3151 26.0599 12.7812 26.4141 13.375C26.7682 13.9688 26.9818 14.651 27.0547 15.4219H24.9062C24.8646 14.9427 24.7604 14.5365 24.5938 14.2031C24.4323 13.8698 24.1875 13.6172 23.8594 13.4453C23.5365 13.2682 23.1068 13.1797 22.5703 13.1797C22.1536 13.1797 21.7865 13.2578 21.4688 13.4141C21.1562 13.5703 20.8958 13.8047 20.6875 14.1172C20.4792 14.4245 20.3229 14.8099 20.2188 15.2734C20.1146 15.7318 20.0625 16.263 20.0625 16.8672V17.75C20.0625 18.3281 20.1094 18.8464 20.2031 19.3047C20.2969 19.763 20.4427 20.151 20.6406 20.4688C20.8385 20.7865 21.0938 21.0286 21.4062 21.1953C21.7188 21.362 22.0911 21.4453 22.5234 21.4453C23.0495 21.4453 23.4766 21.362 23.8047 21.1953C24.138 21.0286 24.3906 20.7839 24.5625 20.4609C24.7396 20.138 24.8516 19.737 24.8984 19.2578Z" fill="#9A5C00"/>
</svg>
