<svg width="18" height="14" viewBox="0 0 18 14" fill="none" xmlns="http://www.w3.org/2000/svg">
<path d="M17.875 3.85938C17.875 4.5332 17.3477 5.03125 16.7031 5.03125C16.6738 5.03125 16.6738 5.03125 16.6738 5.03125L15.1797 13.1758C15.1211 13.6152 14.7109 13.9375 14.2715 13.9375H4.57422C4.13477 13.9375 3.72461 13.6152 3.66602 13.1758L2.17188 5.03125C2.17188 5.03125 2.17188 5.03125 2.14258 5.03125C1.49805 5.03125 0.970703 4.5332 0.970703 3.85938C0.970703 3.21484 1.49805 2.6875 2.14258 2.6875C2.75781 2.6875 3.31445 3.21484 3.31445 3.85938C3.31445 4.12305 3.19727 4.35742 3.05078 4.5625L5.6875 6.67188C6.15625 7.02344 6.83008 6.87695 7.09375 6.34961L8.79297 2.98047C8.4707 2.77539 8.23633 2.42383 8.23633 1.98438C8.23633 1.33984 8.76367 0.8125 9.4375 0.8125C10.082 0.8125 10.5801 1.33984 10.5801 1.98438C10.5801 2.42383 10.3457 2.77539 9.99414 2.98047L11.6934 6.34961C11.957 6.87695 12.6602 7.02344 13.1289 6.67188L15.7363 4.5625C15.6191 4.35742 15.5312 4.12305 15.5312 3.85938C15.5312 3.21484 16.0293 2.6875 16.7031 2.6875C17.3477 2.6875 17.875 3.21484 17.875 3.85938Z" fill="#3369B4"/>
</svg>
